<svg width="39" height="28" viewBox="0 0 39 28" fill="none" xmlns="http://www.w3.org/2000/svg">
<path d="M11 2C11 0.895431 11.8954 0 13 0H37C38.1046 0 39 0.895431 39 2V26C39 27.1046 38.1046 28 37 28H13C11.8954 28 11 27.1046 11 26V2Z" fill="#FFC1DA" fill-opacity="0.28"/>
<path fill-rule="evenodd" clip-rule="evenodd" d="M37 1.5H13C12.7239 1.5 12.5 1.72386 12.5 2V26C12.5 26.2761 12.7239 26.5 13 26.5H37C37.2761 26.5 37.5 26.2761 37.5 26V2C37.5 1.72386 37.2761 1.5 37 1.5ZM13 0C11.8954 0 11 0.895431 11 2V26C11 27.1046 11.8954 28 13 28H37C38.1046 28 39 27.1046 39 26V2C39 0.895431 38.1046 0 37 0H13Z" fill="white"/>
<path fill-rule="evenodd" clip-rule="evenodd" d="M19.4588 7.35262C19.8163 6.93168 20.4474 6.88028 20.8683 7.23781L27.2753 12.6797C27.492 12.8638 27.6201 13.1314 27.6276 13.4157C27.635 13.7 27.5211 13.9739 27.3143 14.1691L20.9073 20.2156C20.5056 20.5947 19.8727 20.5764 19.4937 20.1747C19.1146 19.7731 19.1329 19.1402 19.5346 18.7611L24.1113 14.4418H1C0.447715 14.4418 0 13.9941 0 13.4418C0 12.8896 0.447715 12.4418 1 12.4418H23.9058L19.5736 8.76217C19.1526 8.40464 19.1012 7.77356 19.4588 7.35262Z" fill="white"/>
</svg>
