<svg width="243" height="273" viewBox="0 0 243 273" fill="none" xmlns="http://www.w3.org/2000/svg">
<path fill-rule="evenodd" clip-rule="evenodd" d="M152.451 45.9434C165.919 51.0368 180.631 48.2985 194.153 53.2489C210.831 59.3553 232.101 62.2077 240.08 78.0256C248.036 93.7992 235.014 111.886 232.548 129.368C230.072 146.922 231.79 164.399 225.555 181.002C216.9 204.052 214 240.194 189.568 243.827C163.576 247.693 151.642 209.595 129.648 195.265C115.854 186.277 98.6765 185.448 85.2808 175.881C68.7489 164.073 49.9079 152.681 43.2281 133.54C36.1471 113.249 41.7616 91.0115 48.5482 70.6209C55.9387 48.4159 60.9957 16.9531 83.8374 11.5281C109.261 5.48999 128.017 36.7024 152.451 45.9434Z" fill="#FFECF2"/>
<path fill-rule="evenodd" clip-rule="evenodd" d="M131.798 42.5348C147.381 48.4284 164.405 45.2599 180.05 50.9879C199.349 58.0536 223.96 61.3541 233.193 79.6571C242.399 97.9087 227.331 118.837 224.478 139.065C221.613 159.377 223.6 179.6 216.386 198.811C206.371 225.483 203.015 267.302 174.745 271.506C144.67 275.979 130.861 231.896 105.412 215.315C89.4507 204.915 69.5751 203.956 54.0749 192.885C34.9459 179.222 13.145 166.041 5.41576 143.892C-2.77762 120.414 3.71888 94.683 11.5717 71.0891C20.1233 45.3957 25.9747 8.99018 52.4047 2.71293C81.822 -4.27381 103.525 31.842 131.798 42.5348Z" stroke="#FFD0E0" stroke-width="2"/>
</svg>
