<svg width="1404" height="449" viewBox="0 0 1404 449" fill="none" xmlns="http://www.w3.org/2000/svg">
<path d="M446.226 52.3668C282.95 3.44151 84.1387 302.57 11.902 457.5L1316.22 456V418.5C1235.84 298.225 1133.75 165.676 1092.75 131.361C992.912 29.0253 879.045 143.082 834.592 212.903C784.492 293.629 726.011 259.789 703.034 232.779C592.381 111.281 485.723 61.88 446.226 52.3668Z" fill="#FFF2F6"/>
<path d="M465.023 6.91782C284.978 -47.0315 80.6556 281.16 1 452H1384.25L1403 390.5C1314.37 257.875 1223.16 131.863 1177.95 94.0235C1067.86 -18.8206 942.294 106.949 893.275 183.939C838.03 272.955 773.544 235.641 748.206 205.856C626.189 71.8817 508.577 17.4079 465.023 6.91782Z" stroke="#FEDDE8"/>
</svg>
