<svg width="237" height="272" viewBox="0 0 237 272" fill="none" xmlns="http://www.w3.org/2000/svg">
<path fill-rule="evenodd" clip-rule="evenodd" d="M132.221 57.7545C145.644 62.8405 160.307 60.1062 173.784 65.0493C190.407 71.1467 211.606 73.9949 219.558 89.7897C227.488 105.54 214.509 123.6 212.052 141.056C209.584 158.585 211.296 176.037 205.082 192.615C196.455 215.632 193.565 251.72 169.214 255.348C143.308 259.208 131.414 221.166 109.493 206.857C95.7445 197.883 78.6244 197.055 65.2732 187.501C48.7962 175.711 30.0177 164.336 23.3601 145.222C16.3026 124.961 21.8984 102.756 28.6625 82.3958C36.0285 60.2234 41.0688 28.8068 63.8345 23.3897C89.1735 17.3604 107.868 48.5271 132.221 57.7545Z" fill="#FFECF2"/>
<path fill-rule="evenodd" clip-rule="evenodd" d="M131.128 41.8797C146.659 47.7647 163.626 44.6008 179.22 50.3205C198.455 57.3758 222.984 60.6715 232.186 78.9476C241.361 97.1724 226.343 118.07 223.5 138.268C220.644 158.55 222.625 178.744 215.435 197.927C205.453 224.559 202.108 266.317 173.932 270.515C143.957 274.981 130.194 230.963 104.83 214.406C88.9208 204.022 69.1112 203.064 53.6626 192.009C34.5971 178.366 12.8685 165.205 5.16495 143.089C-3.00123 119.644 3.47371 93.9514 11.3004 70.3921C19.8236 44.7364 25.6556 8.38433 51.9979 2.11629C81.3175 -4.8602 102.948 31.2027 131.128 41.8797Z" stroke="#FFD0E0" stroke-width="2"/>
</svg>
