<svg width="221" height="265" viewBox="0 0 221 265" fill="none" xmlns="http://www.w3.org/2000/svg">
<path fill-rule="evenodd" clip-rule="evenodd" d="M128.259 52.6454C141.293 57.5841 155.532 54.929 168.618 59.729C184.76 65.6499 205.346 68.4157 213.068 83.7531C220.768 99.0476 208.165 116.585 205.778 133.536C203.382 150.556 205.044 167.503 199.01 183.602C190.633 205.952 187.827 240.996 164.181 244.519C139.025 248.267 127.475 211.326 106.189 197.431C92.8385 188.717 76.214 187.913 63.2494 178.636C47.2494 167.187 29.0146 156.141 22.5497 137.581C15.6965 117.906 21.1304 96.3445 27.6986 76.5733C34.8514 55.0428 39.7457 24.5357 61.8524 19.2755C86.4577 13.4208 104.611 43.6851 128.259 52.6454Z" fill="#FFECF2"/>
<path fill-rule="evenodd" clip-rule="evenodd" d="M122.517 40.7422C137.008 46.4568 152.838 43.3846 167.387 48.9386C185.333 55.7897 208.219 58.99 216.804 76.7369C225.365 94.4342 211.353 114.727 208.7 134.34C206.036 154.035 207.884 173.644 201.175 192.272C191.862 218.133 188.742 258.682 162.453 262.759C134.486 267.095 121.646 224.351 97.9805 208.274C83.1377 198.19 64.6552 197.26 50.2416 186.525C32.4535 173.278 12.1807 160.497 4.99327 139.021C-2.62578 116.256 3.41534 91.3064 10.7177 68.4292C18.6698 43.5162 24.1111 8.21657 48.6885 2.12999C76.0438 -4.64453 96.2254 30.3743 122.517 40.7422Z" stroke="#FFD0E0" stroke-width="2"/>
</svg>
