<svg width="237" height="272" viewBox="0 0 237 272" fill="none" xmlns="http://www.w3.org/2000/svg">
<path fill-rule="evenodd" clip-rule="evenodd" d="M132.32 57.9071C145.743 62.993 160.407 60.2587 173.883 65.2018C190.506 71.2992 211.705 74.1475 219.658 89.9422C227.588 105.693 214.609 123.753 212.151 141.209C209.683 158.737 211.395 176.189 205.181 192.768C196.554 215.784 193.664 251.873 169.313 255.501C143.408 259.361 131.514 221.318 109.593 207.01C95.844 198.035 78.7239 197.207 65.3727 187.654C48.8957 175.863 30.1172 164.488 23.4596 145.375C16.4021 125.114 21.9979 102.909 28.762 82.5483C36.128 60.3759 41.1682 28.9593 63.934 23.5423C89.273 17.513 107.967 48.6796 132.32 57.9071Z" fill="#FFECF2"/>
<path fill-rule="evenodd" clip-rule="evenodd" d="M131.227 42.0324C146.759 47.9174 163.726 44.7535 179.319 50.4732C198.554 57.5285 223.083 60.8242 232.285 79.1003C241.461 97.3251 226.443 118.223 223.599 138.421C220.744 158.703 222.724 178.897 215.534 198.08C205.552 224.712 202.208 266.47 174.031 270.668C144.056 275.134 130.294 231.116 104.929 214.559C89.0204 204.174 69.2107 203.217 53.7621 192.162C34.6966 178.519 12.9681 165.358 5.26447 143.241C-2.90171 119.797 3.57322 94.1041 11.3999 70.5448C19.9231 44.8891 25.7552 8.53704 52.0974 2.269C81.4171 -4.70749 103.048 31.3554 131.227 42.0324Z" stroke="#FFD0E0" stroke-width="2"/>
</svg>
